<svg width="15" height="12" viewBox="0 0 15 12" fill="none" xmlns="http://www.w3.org/2000/svg">
<path d="M0 12V4H1.33333V5.33333H2.66667V0H4V1.33333H5.33333V0H6.66667V1.33333H8V0H9.33333V1.33333H10.6667V0H12V5.33333H13.3333V4H14.6667V12H8.66667V10C8.66667 9.63333 8.53611 9.31944 8.275 9.05833C8.01389 8.79722 7.7 8.66667 7.33333 8.66667C6.96667 8.66667 6.65278 8.79722 6.39167 9.05833C6.13056 9.31944 6 9.63333 6 10V12H0ZM1.33333 10.6667H4.66667V10C4.66667 9.26667 4.92778 8.63889 5.45 8.11667C5.97222 7.59444 6.6 7.33333 7.33333 7.33333C8.06667 7.33333 8.69444 7.59444 9.21667 8.11667C9.73889 8.63889 10 9.26667 10 10V10.6667H13.3333V6.66667H10.6667V2.66667H4V6.66667H1.33333V10.6667ZM5.33333 6H6.66667V4H5.33333V6ZM8 6H9.33333V4H8V6Z" fill="#89CEFF"/>
</svg>
