<svg width="10" height="11" viewBox="0 0 10 11" fill="none" xmlns="http://www.w3.org/2000/svg">
<path d="M2.66667 1.33333H4V0H2.66667V1.33333ZM5.33333 1.33333V0H6.66667V1.33333H5.33333ZM2.66667 6.66667V5.33333H4V6.66667H2.66667ZM8 4V2.66667H9.33333V4H8ZM8 6.66667V5.33333H9.33333V6.66667H8ZM5.33333 6.66667V5.33333H6.66667V6.66667H5.33333ZM8 1.33333V0H9.33333V1.33333H8ZM4 2.66667V1.33333H5.33333V2.66667H4ZM0 10.6667V0H1.33333V1.33333H2.66667V2.66667H1.33333V4H2.66667V5.33333H1.33333V10.6667H0ZM6.66667 5.33333V4H8V5.33333H6.66667ZM4 5.33333V4H5.33333V5.33333H4ZM2.66667 4V2.66667H4V4H2.66667ZM5.33333 4V2.66667H6.66667V4H5.33333ZM6.66667 2.66667V1.33333H8V2.66667H6.66667Z" fill="#89CEFF"/>
</svg>
