<svg width="8" height="12" viewBox="0 0 8 12" fill="none" xmlns="http://www.w3.org/2000/svg">
<path d="M1.33333 12V10.6667H3.33333V7.93333C2.37778 7.77778 1.58333 7.33333 0.95 6.6C0.316667 5.86667 0 5 0 4V0H8V4C8 5 7.68333 5.86667 7.05 6.6C6.41667 7.33333 5.62222 7.77778 4.66667 7.93333V10.6667H6.66667V12H1.33333ZM4 6.66667C4.62222 6.66667 5.16667 6.47778 5.63333 6.1C6.1 5.72222 6.41111 5.24444 6.56667 4.66667H1.43333C1.58889 5.24444 1.9 5.72222 2.36667 6.1C2.83333 6.47778 3.37778 6.66667 4 6.66667ZM1.33333 3.33333H6.66667V1.33333H1.33333V3.33333Z" fill="#89CEFF"/>
</svg>
