<svg width="12" height="13" viewBox="0 0 12 13" fill="none" xmlns="http://www.w3.org/2000/svg">
<path d="M11.0667 12.0167L6.83333 7.78333L7.76667 6.85L12 11.0833L11.0667 12.0167ZM1.96667 11.55C1.3 10.8833 0.805556 10.1333 0.483333 9.3C0.161111 8.46667 0 7.61667 0 6.75C0 5.88333 0.161111 5.03889 0.483333 4.21667C0.805556 3.39444 1.3 2.65 1.96667 1.98333C2.63333 1.31667 3.38056 0.819444 4.20833 0.491667C5.03611 0.163889 5.88333 0 6.75 0C7.61667 0 8.46389 0.163889 9.29167 0.491667C10.1194 0.819444 10.8667 1.31667 11.5333 1.98333L1.96667 11.55ZM2.1 9.51667L3 8.61667C2.82222 8.38333 2.65278 8.14444 2.49167 7.9C2.33056 7.65556 2.18333 7.41111 2.05 7.16667C1.91667 6.92222 1.8 6.67778 1.7 6.43333C1.6 6.18889 1.51111 5.95 1.43333 5.71667C1.31111 6.37222 1.30278 7.02778 1.40833 7.68333C1.51389 8.33889 1.74444 8.95 2.1 9.51667ZM3.96667 7.68333L7.66667 3.95C7.18889 3.58333 6.70833 3.28611 6.225 3.05833C5.74167 2.83056 5.28889 2.675 4.86667 2.59167C4.44444 2.50833 4.06389 2.49444 3.725 2.55C3.38611 2.60556 3.12222 2.72778 2.93333 2.91667C2.74444 3.11667 2.62222 3.38611 2.56667 3.725C2.51111 4.06389 2.525 4.44722 2.60833 4.875C2.69167 5.30278 2.84722 5.75556 3.075 6.23333C3.30278 6.71111 3.6 7.19444 3.96667 7.68333ZM8.6 3.01667L9.53333 2.11667C8.94444 1.76111 8.32222 1.52778 7.66667 1.41667C7.01111 1.30556 6.35556 1.31667 5.7 1.45C5.94444 1.52778 6.18889 1.61667 6.43333 1.71667C6.67778 1.81667 6.92222 1.93056 7.16667 2.05833C7.41111 2.18611 7.65278 2.33056 7.89167 2.49167C8.13056 2.65278 8.36667 2.82778 8.6 3.01667Z" fill="#89CEFF"/>
</svg>
